{"asset":{"version":"2.0","generator":"babylon.js glTF exporter for 3dsmax 2 v20230922.2"},"scene":0,"scenes":[{"nodes":[0,1]}],"nodes":[{"mesh":0,"translation":[-1.291017,0.229919255,0.375798523],"rotation":[6.324288E-08,-0.4848096,-6.48991E-08,0.8746198],"scale":[0.380420268,0.380420268,0.380420268],"name":"d1"},{"mesh":1,"translation":[-0.6920675,0.229919255,1.02050626],"rotation":[-3.863987E-08,0.461748719,-1.54904484E-07,0.8870108],"scale":[0.380420268,0.380420268,0.380420268],"name":"d2"}],"meshes":[{"primitives":[{"attributes":{"POSITION":1,"NORMAL":2,"TEXCOORD_0":3},"indices":0,"material":0}],"name":"d1"},{"primitives":[{"attributes":{"POSITION":5,"NORMAL":6,"TEXCOORD_0":7},"indices":4,"material":0}],"name":"d2"}],"accessors":[{"bufferView":0,"componentType":5123,"count":324,"type":"SCALAR","name":"accessorIndices"},{"bufferView":1,"componentType":5126,"count":152,"max":[0.380999982,0.380999982,0.380999982],"min":[-0.380999982,-0.380999982,-0.380999982],"type":"VEC3","name":"accessorPositions"},{"bufferView":1,"byteOffset":1824,"componentType":5126,"count":152,"type":"VEC3","name":"accessorNormals"},{"bufferView":2,"componentType":5126,"count":152,"type":"VEC2","name":"accessorUVs"},{"bufferView":0,"byteOffset":648,"componentType":5123,"count":324,"type":"SCALAR","name":"accessorIndices"},{"bufferView":1,"byteOffset":3648,"componentType":5126,"count":324,"max":[0.380999982,0.380999982,0.380999982],"min":[-0.380999982,-0.380999982,-0.380999982],"type":"VEC3","name":"accessorPositions"},{"bufferView":1,"byteOffset":7536,"componentType":5126,"count":324,"type":"VEC3","name":"accessorNormals"},{"bufferView":2,"byteOffset":1216,"componentType":5126,"count":324,"type":"VEC2","name":"accessorUVs"}],"bufferViews":[{"buffer":0,"byteLength":1296,"name":"bufferViewScalar"},{"buffer":0,"byteOffset":1296,"byteLength":11424,"byteStride":12,"name":"bufferViewFloatVec3"},{"buffer":0,"byteOffset":12720,"byteLength":3808,"byteStride":8,"name":"bufferViewFloatVec2"}],"buffers":[{"uri":"dado.bin","byteLength":16528}],"materials":[{"pbrMetallicRoughness":{"baseColorTexture":{"index":0},"metallicFactor":0.0,"roughnessFactor":0.450053632},"name":"tableromat"}],"textures":[{"sampler":0,"source":0,"name":"millonario.jpg"}],"images":[{"uri":"millonario.jpg"}],"samplers":[{"magFilter":9729,"minFilter":9987}]}