{"asset":{"version":"2.0","generator":"babylon.js glTF exporter for 3dsmax 2 v20240312.5"},"scene":0,"scenes":[{"nodes":[0,1]}],"nodes":[{"mesh":0,"translation":[-8.845837,12.9705582,-1.58050537],"rotation":[1.23634479E-07,0.7071067,8.9905825E-08,0.7071068],"name":"d1"},{"mesh":1,"translation":[7.083826,12.9705658,-1.53334427],"rotation":[-2.07928181E-07,-0.7071068,2.69745442E-07,0.7071068],"scale":[0.35,0.35,0.35],"name":"d2"}],"meshes":[{"primitives":[{"attributes":{"POSITION":1,"NORMAL":2,"TEXCOORD_0":3},"indices":0,"material":0}],"name":"d1"},{"primitives":[{"attributes":{"POSITION":5,"NORMAL":6,"TEXCOORD_0":7},"indices":4,"material":0}],"name":"d2"}],"accessors":[{"bufferView":0,"componentType":5123,"count":324,"type":"SCALAR","name":"accessorIndices"},{"bufferView":1,"componentType":5126,"count":152,"max":[5.25000334,5.250003,5.250001],"min":[-5.250001,-5.250003,-5.25000048],"type":"VEC3","name":"accessorPositions"},{"bufferView":1,"byteOffset":1824,"componentType":5126,"count":152,"type":"VEC3","name":"accessorNormals"},{"bufferView":2,"componentType":5126,"count":152,"type":"VEC2","name":"accessorUVs"},{"bufferView":0,"byteOffset":648,"componentType":5123,"count":324,"type":"SCALAR","name":"accessorIndices"},{"bufferView":1,"byteOffset":3648,"componentType":5126,"count":324,"max":[14.999999,15.0,15.0000019],"min":[-15.000001,-15.0,-14.9999981],"type":"VEC3","name":"accessorPositions"},{"bufferView":1,"byteOffset":7536,"componentType":5126,"count":324,"type":"VEC3","name":"accessorNormals"},{"bufferView":2,"byteOffset":1216,"componentType":5126,"count":324,"type":"VEC2","name":"accessorUVs"},{"bufferView":3,"componentType":5126,"count":2,"max":[1.0],"min":[0.0],"type":"SCALAR","name":"accessorAnimationInput"},{"bufferView":4,"componentType":5126,"count":2,"type":"VEC3","name":"accessorAnimationPositions"},{"bufferView":3,"byteOffset":8,"componentType":5126,"count":31,"max":[1.0],"min":[0.0],"type":"SCALAR","name":"accessorAnimationInput"},{"bufferView":5,"componentType":5126,"count":31,"type":"VEC4","name":"accessorAnimationRotations"},{"bufferView":3,"byteOffset":132,"componentType":5126,"count":2,"max":[1.0],"min":[0.0],"type":"SCALAR","name":"accessorAnimationInput"},{"bufferView":4,"byteOffset":24,"componentType":5126,"count":2,"type":"VEC3","name":"accessorAnimationPositions"},{"bufferView":3,"byteOffset":140,"componentType":5126,"count":31,"max":[1.0],"min":[0.0],"type":"SCALAR","name":"accessorAnimationInput"},{"bufferView":5,"byteOffset":496,"componentType":5126,"count":31,"type":"VEC4","name":"accessorAnimationRotations"},{"bufferView":3,"byteOffset":264,"componentType":5126,"count":23,"max":[1.0],"min":[0.0],"type":"SCALAR","name":"accessorAnimationInput"},{"bufferView":4,"byteOffset":48,"componentType":5126,"count":23,"type":"VEC3","name":"accessorAnimationScales"},{"bufferView":3,"byteOffset":356,"componentType":5126,"count":51,"max":[2.3],"min":[0.0],"type":"SCALAR","name":"accessorAnimationInput"},{"bufferView":4,"byteOffset":324,"componentType":5126,"count":51,"type":"VEC3","name":"accessorAnimationPositions"},{"bufferView":3,"byteOffset":560,"componentType":5126,"count":41,"max":[2.3],"min":[0.0],"type":"SCALAR","name":"accessorAnimationInput"},{"bufferView":5,"byteOffset":992,"componentType":5126,"count":41,"type":"VEC4","name":"accessorAnimationRotations"},{"bufferView":3,"byteOffset":724,"componentType":5126,"count":56,"max":[2.3],"min":[0.0],"type":"SCALAR","name":"accessorAnimationInput"},{"bufferView":4,"byteOffset":936,"componentType":5126,"count":56,"type":"VEC3","name":"accessorAnimationPositions"},{"bufferView":3,"byteOffset":948,"componentType":5126,"count":45,"max":[2.3],"min":[0.0],"type":"SCALAR","name":"accessorAnimationInput"},{"bufferView":5,"byteOffset":1648,"componentType":5126,"count":45,"type":"VEC4","name":"accessorAnimationRotations"},{"bufferView":3,"byteOffset":1128,"componentType":5126,"count":32,"max":[2.3],"min":[0.0],"type":"SCALAR","name":"accessorAnimationInput"},{"bufferView":4,"byteOffset":1608,"componentType":5126,"count":32,"type":"VEC3","name":"accessorAnimationScales"}],"bufferViews":[{"buffer":0,"byteLength":1296,"name":"bufferViewScalar"},{"buffer":0,"byteOffset":1296,"byteLength":11424,"byteStride":12,"name":"bufferViewFloatVec3"},{"buffer":0,"byteOffset":12720,"byteLength":3808,"byteStride":8,"name":"bufferViewFloatVec2"},{"buffer":0,"byteOffset":16528,"byteLength":1256,"name":"bufferViewAnimationFloatScalar"},{"buffer":0,"byteOffset":17784,"byteLength":1992,"name":"bufferViewAnimationFloatVec3"},{"buffer":0,"byteOffset":19776,"byteLength":2368,"name":"bufferViewAnimationFloatVec4"}],"buffers":[{"uri":"dados.bin","byteLength":22144}],"materials":[{"pbrMetallicRoughness":{"baseColorTexture":{"index":0},"metallicFactor":0.0,"roughnessFactor":0.450053632},"name":"dados"}],"textures":[{"sampler":0,"source":0,"name":"dados.png"}],"images":[{"uri":"dados.png"}],"samplers":[{"magFilter":9729,"minFilter":9987}],"animations":[{"channels":[{"sampler":0,"target":{"node":0,"path":"translation"}},{"sampler":1,"target":{"node":0,"path":"rotation"}},{"sampler":2,"target":{"node":1,"path":"translation"}},{"sampler":3,"target":{"node":1,"path":"rotation"}},{"sampler":4,"target":{"node":1,"path":"scale"}}],"samplers":[{"input":8,"output":9},{"input":10,"output":11},{"input":12,"output":13},{"input":14,"output":15},{"input":16,"output":17}],"name":"Rotacion"},{"channels":[{"sampler":0,"target":{"node":0,"path":"translation"}},{"sampler":1,"target":{"node":0,"path":"rotation"}},{"sampler":2,"target":{"node":1,"path":"translation"}},{"sampler":3,"target":{"node":1,"path":"rotation"}},{"sampler":4,"target":{"node":1,"path":"scale"}}],"samplers":[{"input":18,"output":19},{"input":20,"output":21},{"input":22,"output":23},{"input":24,"output":25},{"input":26,"output":27}],"name":"Lanzamiento"}]}