{"asset":{"version":"2.0","generator":"babylon.js glTF exporter for 3dsmax 2 v20230922.2"},"scene":0,"scenes":[{"nodes":[0,1]}],"nodes":[{"skin":0,"mesh":0,"translation":[0.0,1.34545444E-05,-5.347411E-10],"scale":[0.916211843,0.916211843,0.916211843],"name":"Clasico"},{"children":[2],"translation":[-0.00507430872,0.108914718,-0.000318428618],"rotation":[0.0,6.556511E-07,0.0,1.0],"name":"Bip001"},{"children":[3],"rotation":[-0.4999993,-0.5,0.5,0.5000007],"name":"Bip001 Pelvis"},{"children":[4,18,21],"translation":[0.01124637,5.384013E-07,1.34761185E-05],"rotation":[-0.0195798613,0.0202617925,-0.0003961533,0.999603],"scale":[0.99999994,1.0,1.0],"name":"Bip001 Spine"},{"children":[5],"translation":[0.0169507582,5.28052E-07,1.347574E-05],"rotation":[-0.0195776131,0.0198638272,-0.0004045782,0.99961096],"scale":[0.99999994,1.0,1.0],"name":"Bip001 Spine1"},{"children":[6],"translation":[0.01695077,5.279928E-07,1.34772536E-05],"rotation":[-0.0195776038,0.0198638234,-0.0004045782,0.99961096],"scale":[0.9999999,0.99999994,1.0],"name":"Bip001 Spine2"},{"children":[7,12,17],"translation":[0.0169502366,0.0,8.051228E-06],"name":"Bip001 Neck"},{"children":[8],"translation":[0.0,0.00342264329,-8.040631E-06],"rotation":[-0.6264788,-0.7794384,-0.000250521523,-0.000309463736],"scale":[1.0,1.0,0.9999999],"name":"Bip001 L Clavicle"},{"children":[9],"translation":[0.01646891,1.21116637E-08,0.0],"rotation":[-0.08907136,-0.01600376,-0.417997837,0.903929234],"scale":[1.0,0.9999999,1.0],"name":"Bip001 L UpperArm"},{"children":[10],"translation":[0.03760967,0.0,0.0],"rotation":[0.0,-0.09983343,0.0,0.9950041],"scale":[0.99999994,0.9999999,1.0],"name":"Bip001 L Forearm"},{"children":[11],"translation":[0.03205483,0.0,0.0],"rotation":[-0.695044,0.128513783,-0.128616154,0.6955976],"scale":[0.99999994,0.99999994,0.99999994],"name":"Bip001 L Hand"},{"translation":[0.014695433,0.0,-6.055832E-09],"rotation":[-0.000398159144,0.0,0.0,0.9999999],"scale":[1.0,0.99999994,0.9999999],"name":"Bip001 L Finger0"},{"children":[13],"translation":[-1.21116637E-08,-0.00342264329,-8.06182652E-06],"rotation":[0.6264788,-0.7794384,0.00024836752,-0.000311207026],"scale":[1.0,0.99999994,0.99999994],"name":"Bip001 R Clavicle"},{"children":[14],"translation":[0.0164689086,0.0,0.0],"rotation":[-0.0358517319,0.00750932,0.416108936,0.9085767],"scale":[1.0,0.9999999,0.99999994],"name":"Bip001 R UpperArm"},{"children":[15],"translation":[0.03760967,-6.055832E-09,-3.027916E-09],"rotation":[0.0,-0.203255534,-4.56565381E-08,0.979125738],"scale":[0.9999998,1.0,1.0],"name":"Bip001 R Forearm"},{"children":[16],"translation":[0.03205483,0.0,0.0],"rotation":[0.6909558,0.148938224,0.1080966,0.6990798],"scale":[1.0,1.0,1.00000012],"name":"Bip001 R Hand"},{"translation":[0.0146954451,0.0,0.0],"rotation":[0.000398156815,0.0,0.0,0.9999999],"scale":[1.0,0.99999994,0.9999999],"name":"Bip001 R Finger0"},{"translation":[0.010109,0.0,0.0],"rotation":[0.0499743856,-0.05993519,0.000666086737,0.9969503],"scale":[1.0,0.99999994,0.9999999],"name":"Bip001 Head"},{"children":[19],"translation":[-0.0112579735,0.0134684527,5.81677778E-05],"rotation":[-0.00309269316,-0.0198216047,0.9995718,0.02130192],"scale":[0.99999994,0.99999994,1.0],"name":"Bip001 L Thigh"},{"children":[20],"translation":[0.05243825,0.0,0.0],"rotation":[0.0,-0.085665375,0.0,0.996324062],"scale":[1.0,1.0,0.99999994],"name":"Bip001 L Calf"},{"translation":[0.04493322,0.0,0.0],"rotation":[0.00265467376,0.0588305071,0.0218714681,0.9980248],"name":"Bip001 L Foot"},{"children":[22],"translation":[-0.0112151951,-0.013468449,-0.0009965932],"rotation":[-0.0864398554,-0.0216777567,0.995597839,-0.0290366],"scale":[1.0,1.0,1.00000012],"name":"Bip001 R Thigh"},{"children":[23],"translation":[0.05243825,3.027916E-09,0.0],"rotation":[0.0,-0.07534463,0.0,0.9971576],"scale":[0.9999999,0.9999999,0.99999994],"name":"Bip001 R Calf"},{"translation":[0.04493322,0.0,0.0],"rotation":[0.000470920146,0.009661628,-0.0300039575,0.999503],"scale":[0.9999999,0.9999999,0.9999999],"name":"Bip001 R Foot"}],"meshes":[{"primitives":[{"attributes":{"POSITION":1,"NORMAL":2,"TEXCOORD_0":3,"JOINTS_0":4,"JOINTS_1":5,"WEIGHTS_0":6,"WEIGHTS_1":7},"indices":0,"material":0}],"name":"Clasico"}],"accessors":[{"bufferView":0,"componentType":5123,"count":1224,"type":"SCALAR","name":"accessorIndices"},{"bufferView":1,"componentType":5126,"count":380,"max":[0.0291358214,0.2338692,0.0644626245],"min":[-0.03023543,-0.00154403655,-0.0617173426],"type":"VEC3","name":"accessorPositions"},{"bufferView":1,"byteOffset":4560,"componentType":5126,"count":380,"type":"VEC3","name":"accessorNormals"},{"bufferView":2,"componentType":5126,"count":380,"type":"VEC2","name":"accessorUVs"},{"bufferView":3,"componentType":5123,"count":380,"type":"VEC4","name":"accessorJoints"},{"bufferView":3,"byteOffset":3040,"componentType":5123,"count":380,"type":"VEC4","name":"accessorJointsExtra"},{"bufferView":4,"componentType":5126,"count":380,"type":"VEC4","name":"accessorWeights"},{"bufferView":4,"byteOffset":6080,"componentType":5126,"count":380,"type":"VEC4","name":"accessorWeightsExtra"},{"bufferView":5,"componentType":5126,"count":23,"type":"MAT4","name":"accessorInverseBindMatrices"},{"bufferView":6,"componentType":5126,"count":61,"max":[2.0],"min":[0.0],"type":"SCALAR","name":"accessorAnimationInput"},{"bufferView":7,"componentType":5126,"count":61,"type":"VEC3","name":"accessorAnimationPositions"},{"bufferView":8,"componentType":5126,"count":61,"type":"VEC4","name":"accessorAnimationRotations"},{"bufferView":7,"byteOffset":732,"componentType":5126,"count":61,"type":"VEC3","name":"accessorAnimationScales"},{"bufferView":6,"byteOffset":244,"componentType":5126,"count":16,"max":[2.0],"min":[0.0],"type":"SCALAR","name":"accessorAnimationInput"},{"bufferView":7,"byteOffset":1464,"componentType":5126,"count":16,"type":"VEC3","name":"accessorAnimationPositions"},{"bufferView":8,"byteOffset":976,"componentType":5126,"count":16,"type":"VEC4","name":"accessorAnimationRotations"},{"bufferView":7,"byteOffset":1656,"componentType":5126,"count":16,"type":"VEC3","name":"accessorAnimationScales"},{"bufferView":6,"byteOffset":308,"componentType":5126,"count":61,"max":[2.0],"min":[0.0],"type":"SCALAR","name":"accessorAnimationInput"},{"bufferView":7,"byteOffset":1848,"componentType":5126,"count":61,"type":"VEC3","name":"accessorAnimationPositions"},{"bufferView":8,"byteOffset":1232,"componentType":5126,"count":61,"type":"VEC4","name":"accessorAnimationRotations"},{"bufferView":7,"byteOffset":2580,"componentType":5126,"count":61,"type":"VEC3","name":"accessorAnimationScales"},{"bufferView":6,"byteOffset":552,"componentType":5126,"count":61,"max":[2.0],"min":[0.0],"type":"SCALAR","name":"accessorAnimationInput"},{"bufferView":7,"byteOffset":3312,"componentType":5126,"count":61,"type":"VEC3","name":"accessorAnimationPositions"},{"bufferView":8,"byteOffset":2208,"componentType":5126,"count":61,"type":"VEC4","name":"accessorAnimationRotations"},{"bufferView":7,"byteOffset":4044,"componentType":5126,"count":61,"type":"VEC3","name":"accessorAnimationScales"},{"bufferView":6,"byteOffset":796,"componentType":5126,"count":61,"max":[2.0],"min":[0.0],"type":"SCALAR","name":"accessorAnimationInput"},{"bufferView":7,"byteOffset":4776,"componentType":5126,"count":61,"type":"VEC3","name":"accessorAnimationPositions"},{"bufferView":8,"byteOffset":3184,"componentType":5126,"count":61,"type":"VEC4","name":"accessorAnimationRotations"},{"bufferView":7,"byteOffset":5508,"componentType":5126,"count":61,"type":"VEC3","name":"accessorAnimationScales"},{"bufferView":6,"byteOffset":1040,"componentType":5126,"count":59,"max":[2.0],"min":[0.0],"type":"SCALAR","name":"accessorAnimationInput"},{"bufferView":7,"byteOffset":6240,"componentType":5126,"count":59,"type":"VEC3","name":"accessorAnimationPositions"},{"bufferView":8,"byteOffset":4160,"componentType":5126,"count":59,"type":"VEC4","name":"accessorAnimationRotations"},{"bufferView":7,"byteOffset":6948,"componentType":5126,"count":59,"type":"VEC3","name":"accessorAnimationScales"},{"bufferView":6,"byteOffset":1276,"componentType":5126,"count":61,"max":[2.0],"min":[0.0],"type":"SCALAR","name":"accessorAnimationInput"},{"bufferView":7,"byteOffset":7656,"componentType":5126,"count":61,"type":"VEC3","name":"accessorAnimationPositions"},{"bufferView":8,"byteOffset":5104,"componentType":5126,"count":61,"type":"VEC4","name":"accessorAnimationRotations"},{"bufferView":7,"byteOffset":8388,"componentType":5126,"count":61,"type":"VEC3","name":"accessorAnimationScales"},{"bufferView":6,"byteOffset":1520,"componentType":5126,"count":61,"max":[2.0],"min":[0.0],"type":"SCALAR","name":"accessorAnimationInput"},{"bufferView":7,"byteOffset":9120,"componentType":5126,"count":61,"type":"VEC3","name":"accessorAnimationPositions"},{"bufferView":8,"byteOffset":6080,"componentType":5126,"count":61,"type":"VEC4","name":"accessorAnimationRotations"},{"bufferView":7,"byteOffset":9852,"componentType":5126,"count":61,"type":"VEC3","name":"accessorAnimationScales"},{"bufferView":6,"byteOffset":1764,"componentType":5126,"count":61,"max":[2.0],"min":[0.0],"type":"SCALAR","name":"accessorAnimationInput"},{"bufferView":7,"byteOffset":10584,"componentType":5126,"count":61,"type":"VEC3","name":"accessorAnimationPositions"},{"bufferView":8,"byteOffset":7056,"componentType":5126,"count":61,"type":"VEC4","name":"accessorAnimationRotations"},{"bufferView":7,"byteOffset":11316,"componentType":5126,"count":61,"type":"VEC3","name":"accessorAnimationScales"},{"bufferView":6,"byteOffset":2008,"componentType":5126,"count":61,"max":[2.0],"min":[0.0],"type":"SCALAR","name":"accessorAnimationInput"},{"bufferView":7,"byteOffset":12048,"componentType":5126,"count":61,"type":"VEC3","name":"accessorAnimationPositions"},{"bufferView":8,"byteOffset":8032,"componentType":5126,"count":61,"type":"VEC4","name":"accessorAnimationRotations"},{"bufferView":7,"byteOffset":12780,"componentType":5126,"count":61,"type":"VEC3","name":"accessorAnimationScales"},{"bufferView":6,"byteOffset":2252,"componentType":5126,"count":61,"max":[2.0],"min":[0.0],"type":"SCALAR","name":"accessorAnimationInput"},{"bufferView":7,"byteOffset":13512,"componentType":5126,"count":61,"type":"VEC3","name":"accessorAnimationPositions"},{"bufferView":8,"byteOffset":9008,"componentType":5126,"count":61,"type":"VEC4","name":"accessorAnimationRotations"},{"bufferView":7,"byteOffset":14244,"componentType":5126,"count":61,"type":"VEC3","name":"accessorAnimationScales"},{"bufferView":6,"byteOffset":2496,"componentType":5126,"count":61,"max":[2.0],"min":[0.0],"type":"SCALAR","name":"accessorAnimationInput"},{"bufferView":7,"byteOffset":14976,"componentType":5126,"count":61,"type":"VEC3","name":"accessorAnimationPositions"},{"bufferView":8,"byteOffset":9984,"componentType":5126,"count":61,"type":"VEC4","name":"accessorAnimationRotations"},{"bufferView":7,"byteOffset":15708,"componentType":5126,"count":61,"type":"VEC3","name":"accessorAnimationScales"},{"bufferView":6,"byteOffset":2740,"componentType":5126,"count":61,"max":[2.0],"min":[0.0],"type":"SCALAR","name":"accessorAnimationInput"},{"bufferView":7,"byteOffset":16440,"componentType":5126,"count":61,"type":"VEC3","name":"accessorAnimationPositions"},{"bufferView":8,"byteOffset":10960,"componentType":5126,"count":61,"type":"VEC4","name":"accessorAnimationRotations"},{"bufferView":7,"byteOffset":17172,"componentType":5126,"count":61,"type":"VEC3","name":"accessorAnimationScales"},{"bufferView":6,"byteOffset":2984,"componentType":5126,"count":61,"max":[2.0],"min":[0.0],"type":"SCALAR","name":"accessorAnimationInput"},{"bufferView":7,"byteOffset":17904,"componentType":5126,"count":61,"type":"VEC3","name":"accessorAnimationPositions"},{"bufferView":8,"byteOffset":11936,"componentType":5126,"count":61,"type":"VEC4","name":"accessorAnimationRotations"},{"bufferView":7,"byteOffset":18636,"componentType":5126,"count":61,"type":"VEC3","name":"accessorAnimationScales"},{"bufferView":6,"byteOffset":3228,"componentType":5126,"count":61,"max":[2.0],"min":[0.0],"type":"SCALAR","name":"accessorAnimationInput"},{"bufferView":7,"byteOffset":19368,"componentType":5126,"count":61,"type":"VEC3","name":"accessorAnimationPositions"},{"bufferView":8,"byteOffset":12912,"componentType":5126,"count":61,"type":"VEC4","name":"accessorAnimationRotations"},{"bufferView":7,"byteOffset":20100,"componentType":5126,"count":61,"type":"VEC3","name":"accessorAnimationScales"},{"bufferView":6,"byteOffset":3472,"componentType":5126,"count":61,"max":[2.0],"min":[0.0],"type":"SCALAR","name":"accessorAnimationInput"},{"bufferView":7,"byteOffset":20832,"componentType":5126,"count":61,"type":"VEC3","name":"accessorAnimationPositions"},{"bufferView":8,"byteOffset":13888,"componentType":5126,"count":61,"type":"VEC4","name":"accessorAnimationRotations"},{"bufferView":7,"byteOffset":21564,"componentType":5126,"count":61,"type":"VEC3","name":"accessorAnimationScales"},{"bufferView":6,"byteOffset":3716,"componentType":5126,"count":61,"max":[2.0],"min":[0.0],"type":"SCALAR","name":"accessorAnimationInput"},{"bufferView":7,"byteOffset":22296,"componentType":5126,"count":61,"type":"VEC3","name":"accessorAnimationPositions"},{"bufferView":8,"byteOffset":14864,"componentType":5126,"count":61,"type":"VEC4","name":"accessorAnimationRotations"},{"bufferView":7,"byteOffset":23028,"componentType":5126,"count":61,"type":"VEC3","name":"accessorAnimationScales"},{"bufferView":6,"byteOffset":3960,"componentType":5126,"count":61,"max":[2.0],"min":[0.0],"type":"SCALAR","name":"accessorAnimationInput"},{"bufferView":7,"byteOffset":23760,"componentType":5126,"count":61,"type":"VEC3","name":"accessorAnimationPositions"},{"bufferView":8,"byteOffset":15840,"componentType":5126,"count":61,"type":"VEC4","name":"accessorAnimationRotations"},{"bufferView":7,"byteOffset":24492,"componentType":5126,"count":61,"type":"VEC3","name":"accessorAnimationScales"},{"bufferView":6,"byteOffset":4204,"componentType":5126,"count":61,"max":[2.0],"min":[0.0],"type":"SCALAR","name":"accessorAnimationInput"},{"bufferView":7,"byteOffset":25224,"componentType":5126,"count":61,"type":"VEC3","name":"accessorAnimationPositions"},{"bufferView":8,"byteOffset":16816,"componentType":5126,"count":61,"type":"VEC4","name":"accessorAnimationRotations"},{"bufferView":7,"byteOffset":25956,"componentType":5126,"count":61,"type":"VEC3","name":"accessorAnimationScales"},{"bufferView":6,"byteOffset":4448,"componentType":5126,"count":61,"max":[2.0],"min":[0.0],"type":"SCALAR","name":"accessorAnimationInput"},{"bufferView":7,"byteOffset":26688,"componentType":5126,"count":61,"type":"VEC3","name":"accessorAnimationPositions"},{"bufferView":8,"byteOffset":17792,"componentType":5126,"count":61,"type":"VEC4","name":"accessorAnimationRotations"},{"bufferView":7,"byteOffset":27420,"componentType":5126,"count":61,"type":"VEC3","name":"accessorAnimationScales"},{"bufferView":6,"byteOffset":4692,"componentType":5126,"count":61,"max":[2.0],"min":[0.0],"type":"SCALAR","name":"accessorAnimationInput"},{"bufferView":7,"byteOffset":28152,"componentType":5126,"count":61,"type":"VEC3","name":"accessorAnimationPositions"},{"bufferView":8,"byteOffset":18768,"componentType":5126,"count":61,"type":"VEC4","name":"accessorAnimationRotations"},{"bufferView":7,"byteOffset":28884,"componentType":5126,"count":61,"type":"VEC3","name":"accessorAnimationScales"},{"bufferView":6,"byteOffset":4936,"componentType":5126,"count":61,"max":[2.0],"min":[0.0],"type":"SCALAR","name":"accessorAnimationInput"},{"bufferView":7,"byteOffset":29616,"componentType":5126,"count":61,"type":"VEC3","name":"accessorAnimationPositions"},{"bufferView":8,"byteOffset":19744,"componentType":5126,"count":61,"type":"VEC4","name":"accessorAnimationRotations"},{"bufferView":7,"byteOffset":30348,"componentType":5126,"count":61,"type":"VEC3","name":"accessorAnimationScales"},{"bufferView":6,"byteOffset":5180,"componentType":5126,"count":61,"max":[2.0],"min":[0.0],"type":"SCALAR","name":"accessorAnimationInput"},{"bufferView":7,"byteOffset":31080,"componentType":5126,"count":61,"type":"VEC3","name":"accessorAnimationPositions"},{"bufferView":8,"byteOffset":20720,"componentType":5126,"count":61,"type":"VEC4","name":"accessorAnimationRotations"},{"bufferView":7,"byteOffset":31812,"componentType":5126,"count":61,"type":"VEC3","name":"accessorAnimationScales"}],"bufferViews":[{"buffer":0,"byteLength":2448,"name":"bufferViewScalar"},{"buffer":0,"byteOffset":2448,"byteLength":9120,"byteStride":12,"name":"bufferViewFloatVec3"},{"buffer":0,"byteOffset":11568,"byteLength":3040,"byteStride":8,"name":"bufferViewFloatVec2"},{"buffer":0,"byteOffset":14608,"byteLength":6080,"byteStride":8,"name":"bufferViewUnsignedShortVec4"},{"buffer":0,"byteOffset":20688,"byteLength":12160,"byteStride":16,"name":"bufferViewFloatVec4"},{"buffer":0,"byteOffset":32848,"byteLength":1472,"name":"bufferViewFloatMat4"},{"buffer":0,"byteOffset":34320,"byteLength":5424,"name":"bufferViewAnimationFloatScalar"},{"buffer":0,"byteOffset":39744,"byteLength":32544,"name":"bufferViewAnimationFloatVec3"},{"buffer":0,"byteOffset":72288,"byteLength":21696,"name":"bufferViewAnimationFloatVec4"}],"buffers":[{"uri":"FichaClasico.bin","byteLength":93984}],"materials":[{"pbrMetallicRoughness":{"baseColorFactor":[0.7843138,0.7372549,0.9686275,1.0],"metallicFactor":0.0,"roughnessFactor":0.450053632},"name":"JColor"}],"animations":[{"channels":[{"sampler":0,"target":{"node":1,"path":"translation"}},{"sampler":1,"target":{"node":1,"path":"rotation"}},{"sampler":2,"target":{"node":1,"path":"scale"}},{"sampler":3,"target":{"node":2,"path":"translation"}},{"sampler":4,"target":{"node":2,"path":"rotation"}},{"sampler":5,"target":{"node":2,"path":"scale"}},{"sampler":6,"target":{"node":3,"path":"translation"}},{"sampler":7,"target":{"node":3,"path":"rotation"}},{"sampler":8,"target":{"node":3,"path":"scale"}},{"sampler":9,"target":{"node":4,"path":"translation"}},{"sampler":10,"target":{"node":4,"path":"rotation"}},{"sampler":11,"target":{"node":4,"path":"scale"}},{"sampler":12,"target":{"node":5,"path":"translation"}},{"sampler":13,"target":{"node":5,"path":"rotation"}},{"sampler":14,"target":{"node":5,"path":"scale"}},{"sampler":15,"target":{"node":6,"path":"translation"}},{"sampler":16,"target":{"node":6,"path":"rotation"}},{"sampler":17,"target":{"node":6,"path":"scale"}},{"sampler":18,"target":{"node":7,"path":"translation"}},{"sampler":19,"target":{"node":7,"path":"rotation"}},{"sampler":20,"target":{"node":7,"path":"scale"}},{"sampler":21,"target":{"node":8,"path":"translation"}},{"sampler":22,"target":{"node":8,"path":"rotation"}},{"sampler":23,"target":{"node":8,"path":"scale"}},{"sampler":24,"target":{"node":9,"path":"translation"}},{"sampler":25,"target":{"node":9,"path":"rotation"}},{"sampler":26,"target":{"node":9,"path":"scale"}},{"sampler":27,"target":{"node":10,"path":"translation"}},{"sampler":28,"target":{"node":10,"path":"rotation"}},{"sampler":29,"target":{"node":10,"path":"scale"}},{"sampler":30,"target":{"node":11,"path":"translation"}},{"sampler":31,"target":{"node":11,"path":"rotation"}},{"sampler":32,"target":{"node":11,"path":"scale"}},{"sampler":33,"target":{"node":12,"path":"translation"}},{"sampler":34,"target":{"node":12,"path":"rotation"}},{"sampler":35,"target":{"node":12,"path":"scale"}},{"sampler":36,"target":{"node":13,"path":"translation"}},{"sampler":37,"target":{"node":13,"path":"rotation"}},{"sampler":38,"target":{"node":13,"path":"scale"}},{"sampler":39,"target":{"node":14,"path":"translation"}},{"sampler":40,"target":{"node":14,"path":"rotation"}},{"sampler":41,"target":{"node":14,"path":"scale"}},{"sampler":42,"target":{"node":15,"path":"translation"}},{"sampler":43,"target":{"node":15,"path":"rotation"}},{"sampler":44,"target":{"node":15,"path":"scale"}},{"sampler":45,"target":{"node":16,"path":"translation"}},{"sampler":46,"target":{"node":16,"path":"rotation"}},{"sampler":47,"target":{"node":16,"path":"scale"}},{"sampler":48,"target":{"node":17,"path":"translation"}},{"sampler":49,"target":{"node":17,"path":"rotation"}},{"sampler":50,"target":{"node":17,"path":"scale"}},{"sampler":51,"target":{"node":18,"path":"translation"}},{"sampler":52,"target":{"node":18,"path":"rotation"}},{"sampler":53,"target":{"node":18,"path":"scale"}},{"sampler":54,"target":{"node":19,"path":"translation"}},{"sampler":55,"target":{"node":19,"path":"rotation"}},{"sampler":56,"target":{"node":19,"path":"scale"}},{"sampler":57,"target":{"node":20,"path":"translation"}},{"sampler":58,"target":{"node":20,"path":"rotation"}},{"sampler":59,"target":{"node":20,"path":"scale"}},{"sampler":60,"target":{"node":21,"path":"translation"}},{"sampler":61,"target":{"node":21,"path":"rotation"}},{"sampler":62,"target":{"node":21,"path":"scale"}},{"sampler":63,"target":{"node":22,"path":"translation"}},{"sampler":64,"target":{"node":22,"path":"rotation"}},{"sampler":65,"target":{"node":22,"path":"scale"}},{"sampler":66,"target":{"node":23,"path":"translation"}},{"sampler":67,"target":{"node":23,"path":"rotation"}},{"sampler":68,"target":{"node":23,"path":"scale"}}],"samplers":[{"input":9,"output":10},{"input":9,"output":11},{"input":9,"output":12},{"input":13,"output":14},{"input":13,"output":15},{"input":13,"output":16},{"input":17,"output":18},{"input":17,"output":19},{"input":17,"output":20},{"input":21,"output":22},{"input":21,"output":23},{"input":21,"output":24},{"input":25,"output":26},{"input":25,"output":27},{"input":25,"output":28},{"input":29,"output":30},{"input":29,"output":31},{"input":29,"output":32},{"input":33,"output":34},{"input":33,"output":35},{"input":33,"output":36},{"input":37,"output":38},{"input":37,"output":39},{"input":37,"output":40},{"input":41,"output":42},{"input":41,"output":43},{"input":41,"output":44},{"input":45,"output":46},{"input":45,"output":47},{"input":45,"output":48},{"input":49,"output":50},{"input":49,"output":51},{"input":49,"output":52},{"input":53,"output":54},{"input":53,"output":55},{"input":53,"output":56},{"input":57,"output":58},{"input":57,"output":59},{"input":57,"output":60},{"input":61,"output":62},{"input":61,"output":63},{"input":61,"output":64},{"input":65,"output":66},{"input":65,"output":67},{"input":65,"output":68},{"input":69,"output":70},{"input":69,"output":71},{"input":69,"output":72},{"input":73,"output":74},{"input":73,"output":75},{"input":73,"output":76},{"input":77,"output":78},{"input":77,"output":79},{"input":77,"output":80},{"input":81,"output":82},{"input":81,"output":83},{"input":81,"output":84},{"input":85,"output":86},{"input":85,"output":87},{"input":85,"output":88},{"input":89,"output":90},{"input":89,"output":91},{"input":89,"output":92},{"input":93,"output":94},{"input":93,"output":95},{"input":93,"output":96},{"input":97,"output":98},{"input":97,"output":99},{"input":97,"output":100}],"name":"All Animations"}],"skins":[{"inverseBindMatrices":8,"skeleton":1,"joints":[1,2,3,4,5,6,7,8,9,10,11,12,13,14,15,16,17,18,19,20,21,22,23],"name":"skeleton #0"}]}