{"asset":{"version":"2.0","generator":"babylon.js glTF exporter for 3dsmax 2 v20240312.5"},"scene":0,"scenes":[{"nodes":[0]}],"nodes":[{"mesh":0,"translation":[0.0,-7.154053E-06,0.0],"name":"tablero"}],"meshes":[{"primitives":[{"attributes":{"POSITION":1,"NORMAL":2,"TEXCOORD_0":3},"indices":0,"material":0}],"name":"tablero"}],"accessors":[{"bufferView":0,"componentType":5123,"count":6,"type":"SCALAR","name":"accessorIndices"},{"bufferView":1,"componentType":5126,"count":4,"max":[83.13009,0.0,72.32748],"min":[-83.13009,0.0,-72.32748],"type":"VEC3","name":"accessorPositions"},{"bufferView":1,"byteOffset":48,"componentType":5126,"count":4,"type":"VEC3","name":"accessorNormals"},{"bufferView":2,"componentType":5126,"count":4,"type":"VEC2","name":"accessorUVs"}],"bufferViews":[{"buffer":0,"byteLength":12,"name":"bufferViewScalar"},{"buffer":0,"byteOffset":12,"byteLength":96,"byteStride":12,"name":"bufferViewFloatVec3"},{"buffer":0,"byteOffset":108,"byteLength":32,"byteStride":8,"name":"bufferViewFloatVec2"}],"buffers":[{"uri":"tableroShow.bin","byteLength":140}],"materials":[{"pbrMetallicRoughness":{"baseColorTexture":{"index":0},"metallicFactor":0.0,"roughnessFactor":0.450053632},"name":"tableromat"}],"textures":[{"sampler":0,"source":0,"name":"millonario.jpg"}],"images":[{"uri":"millonario.jpg"}],"samplers":[{"magFilter":9729,"minFilter":9987}]}